<svg width="109" height="47" viewBox="0 0 109 47" fill="none" xmlns="http://www.w3.org/2000/svg">
<g filter="url(#filter0_d_155_37)">
<path d="M4 10C4 4.47715 8.47715 0 14 0L95 0C100.523 0 105 4.47715 105 10V29C105 34.5228 100.523 39 95 39H14C8.47715 39 4 34.5228 4 29V10Z" fill="#202B33"/>
<path d="M5 10C5 5.02944 9.02944 1 14 1L95 1C99.9706 1 104 5.02944 104 10V29C104 33.9706 99.9706 38 95 38H14C9.02943 38 5 33.9706 5 29V10Z" stroke="white" stroke-width="2"/>
</g>
<defs>
<filter id="filter0_d_155_37" x="0" y="0" width="109" height="47" filterUnits="userSpaceOnUse" color-interpolation-filters="sRGB">
<feFlood flood-opacity="0" result="BackgroundImageFix"/>
<feColorMatrix in="SourceAlpha" type="matrix" values="0 0 0 0 0 0 0 0 0 0 0 0 0 0 0 0 0 0 127 0" result="hardAlpha"/>
<feOffset dy="4"/>
<feGaussianBlur stdDeviation="2"/>
<feComposite in2="hardAlpha" operator="out"/>
<feColorMatrix type="matrix" values="0 0 0 0 0 0 0 0 0 0 0 0 0 0 0 0 0 0 0.25 0"/>
<feBlend mode="normal" in2="BackgroundImageFix" result="effect1_dropShadow_155_37"/>
<feBlend mode="normal" in="SourceGraphic" in2="effect1_dropShadow_155_37" result="shape"/>
</filter>
</defs>
</svg>
